<svg xmlns="http://www.w3.org/2000/svg" x="0px" y="0px" width="100" height="100" viewBox="0,0,256,256">
    <g fill="#000" fill-rule="nonzero" stroke="none" stroke-width="1" stroke-linecap="butt" stroke-linejoin="miter" stroke-miterlimit="10" stroke-dasharray="" stroke-dashoffset="0" font-family="none" font-weight="none" font-size="none" text-anchor="none" style="mix-blend-mode: normal">
        <g transform="scale(5.33333,5.33333)">
            <path d="M15.59766,0.92578c-0.21837,0.01106 -0.43168,0.06972 -0.625,0.17187c-3.43548,1.81873 -4.93561,5.5447 -5.30273,8.97656c-0.19287,-0.05517 -0.44653,-0.14371 -0.61914,-0.20117c-0.71485,-0.23799 -1.16534,-0.4911 -1.41211,-0.80273c-0.38637,-0.48808 -1.03402,-0.68684 -1.62767,-0.49951c-0.59364,0.18733 -1.00992,0.72182 -1.04616,1.34326c-0.25503,4.42412 1.13594,7.5257 3.03125,9.68359c0.00195,0.00196 0.0039,0.00391 0.00586,0.00586v7.77344c0,0.05882 0.01178,0.11694 0.01563,0.17578c-0.00033,0.03102 -0.00134,0.3851 -0.00195,0.44922l-1.01367,0.00781c-0.549,0.004 -0.99219,0.44905 -0.99219,0.99805l-0.00586,5.58789c0,0.267 0.10492,0.52294 0.29492,0.71094l2.54688,2.52734c0.31423,0.90234 0.7312,1.80862 1.32422,2.71094v0.00195c0.23879,0.3626 0.39669,0.48416 0.65039,0.72461c0.2537,0.24045 0.5665,0.51615 0.9375,0.82227c0.74201,0.61223 1.7085,1.34136 2.79883,2.05273c2.17453,1.41875 4.75638,2.84355 7.37305,2.85156c2.6414,0.05871 5.24353,-1.38375 7.44531,-2.81641c1.10286,-0.71761 2.08265,-1.45417 2.83594,-2.07227c0.37664,-0.30905 0.69437,-0.58814 0.95117,-0.82812c0.25681,-0.23999 0.41616,-0.36825 0.64648,-0.69531l0.01367,-0.01953l0.01367,-0.01953c0.61145,-0.9295 1.03704,-1.86344 1.35352,-2.79297l2.49023,-2.4707c0.19,-0.188 0.29492,-0.44394 0.29492,-0.71094l-0.00586,-5.58789c0,-0.549 -0.44319,-0.996 -0.99219,-1l-0.9707,-0.00586v-4.11133c1.38418,1.00901 2.80031,2.3779 4.00195,4.44141c0.32509,0.55878 0.97159,0.84646 1.60432,0.71388c0.63273,-0.13258 1.10936,-0.65558 1.18279,-1.29786c0.26825,-2.33797 0.2817,-5.89723 -1.36328,-8.84375c2.25015,-1.54423 3.43162,-4.01235 3.57617,-6.46289c0.0309,-0.52202 -0.21228,-1.02246 -0.64179,-1.32076c-0.42951,-0.2983 -0.98336,-0.35142 -1.46173,-0.14018c-1.18082,0.5205 -1.73,0.43565 -2.78516,0.32031c-0.2493,-0.02725 -0.60839,-0.03001 -0.9082,-0.05274c1.82751,-2.47425 3.31675,-5.01224 3.75586,-8.51562c0.07364,-0.58988 -0.20799,-1.1676 -0.71803,-1.47295c-0.51004,-0.30535 -1.15228,-0.28072 -1.63744,0.06279c-2.36772,1.68143 -6.84654,4.28169 -10.51562,5.23828c0.17642,-1.31722 0.45009,-2.462 0.81641,-3.52734c0.15864,-0.46092 0.08343,-0.97018 -0.20165,-1.36557c-0.28509,-0.39539 -0.74451,-0.62762 -1.23194,-0.62271c-4.10645,0.04281 -8.27537,1.74683 -11.43945,4.77539c-0.39952,-1.15942 -0.73311,-2.39523 -0.875,-3.55664c-0.09639,-0.78127 -0.78027,-1.35514 -1.56641,-1.31445zM27.42773,4.2832c-0.29161,1.18175 -0.52344,2.50435 -0.52344,4.18164c0.00013,0.42017 0.17647,0.82102 0.4861,1.10504c0.30964,0.28402 0.72419,0.42517 1.1428,0.3891c3.789,-0.32948 7.49928,-2.31822 10.56641,-4.2207c-0.86394,2.19372 -2.23802,4.00374 -4.20898,6.30859c-0.43299,0.50657 -0.4799,1.23805 -0.11516,1.79578c0.36474,0.55773 1.05367,0.80798 1.69133,0.61438c1.45518,-0.44277 2.22683,-0.31743 3.32617,-0.19726c0.46356,0.05067 1.02897,0.06715 1.61914,0.04492c-0.47599,1.13453 -1.19965,2.12536 -2.57031,2.67383c-0.45007,0.18013 -0.78536,0.56666 -0.9001,1.03766c-0.11475,0.47101 0.00519,0.96843 0.32198,1.33539c0.81919,0.94955 1.27355,2.36558 1.49023,3.83789c-2.02909,-2.02433 -4.15721,-3.27444 -5.60937,-4.02344c-0.64582,-0.33296 -1.43742,-0.15522 -1.87891,0.42188l-1.38281,1.80469c-0.93726,-1.97382 -2.20114,-3.8952 -3.95703,-5.09961c-0.30017,-0.21769 -0.67033,-0.31649 -1.03906,-0.27734c-0.10718,-0.02295 -0.21656,-0.03409 -0.32617,-0.0332h-15.15039c-0.39778,0 -0.75208,0.09981 -1.0625,0.26367c-0.51469,-0.98115 -0.87863,-2.13104 -1.08789,-3.47656c0.85564,0.27462 1.65477,0.46763 2.16211,0.6875c0.47072,0.20386 1.01297,0.15307 1.43764,-0.13466c0.42467,-0.28773 0.67288,-0.7725 0.65807,-1.28526c-0.06529,-2.25413 0.69526,-5.04804 2.19727,-6.875c0.35363,1.4208 0.80761,2.82403 1.48438,4.03516c0.24652,0.44052 0.69806,0.72752 1.20157,0.76371c0.50351,0.03619 0.99145,-0.18328 1.29843,-0.58402c2.15947,-2.81796 5.42943,-4.53319 8.72852,-5.09375zM11.00195,18.98242h14.49023c0.40823,0.331 0.83237,0.78184 1.24805,1.30859l-0.62305,0.57422c-0.505,-0.336 -1.43858,-0.81641 -2.64258,-0.81641c-1.902,0 -3.3898,1.29003 -3.4668,2.95703l-1.04297,2.28711c-0.07,0.152 -0.05112,0.32784 0.04688,0.46484c0.099,0.138 0.26631,0.2207 0.44531,0.2207h3.61523c0.881,0 2.27734,-0.56961 2.27734,-2.09961c0,-1.073 -0.67642,-1.85352 -1.60742,-1.85352c-1.109,0 -1.53256,0.84306 -1.60156,1.28906c-0.042,0.27 0.16308,0.52059 0.45508,0.55859c0.299,0.041 0.56447,-0.14992 0.60547,-0.41992c0.006,-0.045 0.08102,-0.43945 0.54102,-0.43945c0.351,0 0.53516,0.43523 0.53516,0.86523c0,1.081 -1.19408,1.11133 -1.20508,1.11133c-1.24,0 -2.00781,-0.70951 -2.00781,-1.85352c0,-1.032 0.90116,-2.09961 2.41016,-2.09961c1.353,0 2.29183,0.83675 2.29883,0.84375c0.209,0.193 0.54981,0.193 0.75781,0l0.82031,-0.75586c0.82218,1.21153 1.50794,2.57119 1.71875,3.51563c0.12705,0.56856 0.57178,1.01214 1.14067,1.13772c0.56888,0.12558 1.15903,-0.08955 1.51363,-0.55179l1.28125,-1.67383v3.42188h-22.00391zM11.00781,29.97461h3.08789c-0.15159,0.46611 -0.07461,0.97811 0.20695,1.37647c0.28156,0.39836 0.73347,0.63465 1.21493,0.63525c0.48146,-0.0006 0.93337,-0.23689 1.21493,-0.63525c0.28156,-0.39836 0.35854,-0.91036 0.20695,-1.37647h10.14648c-0.1626,0.46805 -0.09239,0.98748 0.18831,1.39319c0.2807,0.40571 0.73697,0.64724 1.2238,0.64782c0.48683,-0.00058 0.9431,-0.24211 1.2238,-0.64782c0.2807,-0.40571 0.35091,-0.92514 0.18831,-1.39319h3.0957v1.60156c0,1.73541 -0.06411,3.31348 -0.53125,4.85547c-1.29898,-0.20566 -2.89756,-1.11601 -4.52148,-2.19336c-1.84915,-1.22677 -3.62396,-2.73828 -5.95312,-2.73828c-2.33533,0 -4.11215,1.52186 -5.96484,2.75781c-1.6155,1.07772 -3.20805,1.98728 -4.5,2.20313c-0.47388,-1.55196 -0.53516,-3.13869 -0.53516,-4.88477c0,-0.98692 0.00451,-0.91818 0.00781,-1.60156zM22,34.5c0.67083,0 2.39458,0.97755 4.29492,2.23828c1.39541,0.92574 2.94362,1.96301 4.70508,2.45117c-0.18697,0.17065 -0.40594,0.36573 -0.69336,0.60156c-0.67021,0.54993 -1.57322,1.22943 -2.56836,1.87695c-1.99029,1.29504 -4.43926,2.36774 -5.75,2.33594h-0.01758h-0.01953c-1.35778,0 -3.78901,-1.08784 -5.75586,-2.37109c-0.98342,-0.64163 -1.87179,-1.31262 -2.52734,-1.85352c-0.27075,-0.2234 -0.47087,-0.40349 -0.64844,-0.56641c1.75066,-0.496 3.29253,-1.53229 4.68164,-2.45898c1.90381,-1.27005 3.63416,-2.25391 4.29883,-2.25391zM20.89063,35.62305c-0.061,-0.009 -0.12163,0.02508 -0.14062,0.08008l-0.70508,2c-0.069,0.197 -0.04455,0.4128 0.06445,0.5918c0.34,0.555 1.14136,1.70508 1.94336,1.70508c0.762,0 1.52267,-1.03719 1.88867,-1.61719c0.049,-0.078 0.05091,-0.17491 0.00391,-0.25391c-0.047,-0.079 -0.13547,-0.12695 -0.23047,-0.12695h-1.9082c-0.447,0 -0.81055,-0.34363 -0.81055,-0.76562v-1.49414c0,-0.059 -0.04447,-0.11014 -0.10547,-0.11914z"></path>
        </g>
    </g>
</svg>