<svg width="23" height="19" viewBox="0 0 23 19" fill="none"
    xmlns="http://www.w3.org/2000/svg">
    <path d="M7.22487 19C15.9045 19 20.6526 11.6883 20.6526 5.35873C20.6526 5.15412 20.6526 4.9466 20.6439 4.74199C21.5683 4.06166 22.3661 3.21937 23 2.25459C22.1365 2.64165 21.2215 2.89676 20.2846 3.01162C21.2715 2.41189 22.0106 1.46827 22.3646 0.356148C21.4374 0.914607 20.4226 1.30664 19.3646 1.51509C18.6533 0.744931 17.712 0.234726 16.6866 0.0635014C15.6612 -0.107724 14.6089 0.0695869 13.6927 0.567968C12.7764 1.06635 12.0474 1.85799 11.6185 2.82026C11.1896 3.78253 11.0848 4.86173 11.3203 5.8907C9.444 5.79505 7.60842 5.29949 5.93262 4.43617C4.25682 3.57285 2.77823 2.36104 1.59275 0.879351C0.990926 1.93611 0.807262 3.18612 1.07905 4.37555C1.35085 5.56499 2.05772 6.60467 3.05612 7.28347C2.30796 7.25763 1.57625 7.05338 0.92 6.68719V6.75296C0.92129 7.85999 1.2985 8.93261 1.98788 9.78952C2.67726 10.6464 3.63651 11.2351 4.7035 11.4559C4.2985 11.5694 3.88014 11.6259 3.46006 11.624C3.16391 11.6249 2.86836 11.597 2.57744 11.5407C2.87901 12.4937 3.46621 13.3269 4.25679 13.9236C5.04738 14.5203 6.00176 14.8507 6.98625 14.8685C5.3138 16.2039 3.24789 16.9282 1.12125 16.9247C0.746524 16.9263 0.372058 16.9044 0 16.859C2.15843 18.258 4.66512 19.0008 7.22487 19Z" fill="#ABB2BF"/>
</svg>
